<svg height="200px" width="200px" version="1.1" id="Layer_1" xmlns="http://www.w3.org/2000/svg" xmlns:xlink="http://www.w3.org/1999/xlink" viewBox="0 0 512 512" xml:space="preserve" fill="#000000"><g id="SVGRepo_bgCarrier" stroke-width="0"></g><g id="SVGRepo_tracerCarrier" stroke-linecap="round" stroke-linejoin="round"></g><g id="SVGRepo_iconCarrier"> <circle style="fill:#5BC5FB;" cx="256" cy="256" r="256"></circle> <path style="fill:#a2ddfb;" d="M350.527,135.856l-179.86,138.502l102.4,95.42l-151.766,19.266L243.967,511.71 c3.989,0.184,7.999,0.29,12.033,0.29c128.315,0,234.575-94.406,253.124-217.548L350.527,135.856z"></path> <circle style="fill:#ffffff;" cx="256" cy="199.111" r="113.778"></circle> <path style="fill:#ededed;" d="M256,85.333c-0.193,0-0.381,0.014-0.574,0.014v227.526c0.193,0.002,0.381,0.014,0.574,0.014 c62.838,0,113.778-50.94,113.778-113.778S318.838,85.333,256,85.333z"></path> <path style="fill:#386895;" d="M329.268,240.547c0-12.16-9.857-22.018-22.018-22.018h-102.5c-12.16,0-22.018,9.857-22.018,22.018 v45.587c19.797,16.686,45.351,26.757,73.268,26.757s53.47-10.071,73.268-26.757V240.547z"></path> <path style="fill:#5BC5FB;" d="M307.25,218.529h-51.824v94.348c0.191,0.002,0.381,0.014,0.574,0.014 c27.917,0,53.47-10.071,73.268-26.757v-45.587C329.268,228.386,319.41,218.529,307.25,218.529z"></path> <circle style="fill:#FFEDB5;" cx="256" cy="177.459" r="45.792"></circle> <path style="fill:#FEE187;" d="M256,131.675c-0.193,0-0.383,0.012-0.574,0.014v91.555c0.191,0.002,0.381,0.014,0.574,0.014 c25.29,0,45.792-20.502,45.792-45.792S281.29,131.675,256,131.675z"></path> <path style="fill:#ffffff;" d="M142.222,398.222h227.556c15.71,0,28.444-12.734,28.444-28.444l0,0 c0-15.71-12.734-28.444-28.444-28.444H142.222c-15.71,0-28.444,12.734-28.444,28.444l0,0 C113.778,385.488,126.512,398.222,142.222,398.222z"></path> <path style="fill:#ffffff;" d="M369.778,341.333H255.426v56.889h114.352c15.71,0,28.444-12.734,28.444-28.444l0,0 C398.222,354.068,385.488,341.333,369.778,341.333z"></path> <g> <circle style="fill:#ededed;" cx="170.667" cy="369.778" r="14.222"></circle> <circle style="fill:#ededed;" cx="204.8" cy="369.778" r="14.222"></circle> <circle style="fill:#ededed;" cx="273.067" cy="369.778" r="14.222"></circle> <circle style="fill:#ededed;" cx="307.2" cy="369.778" r="14.222"></circle> <circle style="fill:#ededed;" cx="341.333" cy="369.778" r="14.222"></circle> <circle style="fill:#ededed;" cx="238.933" cy="369.778" r="14.222"></circle> </g> </g></svg>